<?xml version="1.0" standalone="no"?>
<!DOCTYPE svg PUBLIC "-//W3C//DTD SVG 20010904//EN"
 "http://www.w3.org/TR/2001/REC-SVG-20010904/DTD/svg10.dtd">
<svg version="1.0" xmlns="http://www.w3.org/2000/svg"
 width="1000.000000pt" height="1000.000000pt" viewBox="0 0 1000.000000 1000.000000"
 preserveAspectRatio="xMidYMid meet">
<metadata>
Created by potrace 1.11, written by Peter Selinger 2001-2013
</metadata>
<g transform="translate(0.000000,1000.000000) scale(0.100000,-0.100000)"
fill="#000000" stroke="none">
<path d="M4957 8528 c2 -5 0 -8 -6 -8 -5 0 -18 -3 -28 -6 -15 -5 -15 -4 -3 5
8 6 11 11 6 11 -6 0 -20 -9 -32 -21 -19 -18 -37 -21 -121 -23 -54 -2 -108 -8
-119 -14 -32 -17 -102 -105 -96 -121 3 -8 0 -11 -7 -7 -6 4 -11 2 -11 -3 0 -6
-5 -11 -11 -11 -7 0 -18 -8 -25 -17 -13 -17 -13 -17 -14 0 0 9 -4 17 -9 17 -9
0 -17 -31 -28 -102 -7 -49 -26 -65 -58 -50 -27 12 -48 -4 -25 -18 8 -5 2 -10
-18 -15 -28 -6 -57 -29 -88 -67 -7 -8 -26 -31 -44 -52 -25 -27 -33 -48 -35
-79 -1 -23 -9 -58 -17 -77 -8 -19 -12 -37 -9 -40 6 -5 9 -15 17 -54 2 -11 -1
-25 -7 -33 -7 -8 -7 -13 -2 -13 6 0 11 -26 11 -57 1 -51 12 -158 27 -263 6
-44 24 -90 43 -112 10 -12 11 -18 4 -18 -17 0 -15 -25 3 -40 8 -7 15 -22 15
-33 0 -20 -1 -20 -24 2 -36 34 -47 20 -31 -37 7 -26 17 -72 20 -102 8 -61 17
-51 29 34 8 48 8 48 24 25 9 -13 15 -40 15 -62 -1 -26 2 -37 10 -34 8 2 11 27
8 79 -3 77 7 100 29 73 7 -8 19 -15 26 -15 8 0 14 -4 14 -9 0 -5 9 -13 20 -16
11 -3 20 -13 20 -21 0 -8 6 -14 14 -14 7 0 19 -13 25 -28 7 -16 25 -36 42 -46
55 -32 277 -27 363 9 78 33 136 107 136 174 0 19 6 30 18 33 29 7 52 -2 52
-21 0 -38 56 -106 106 -129 27 -13 56 -27 64 -31 22 -11 203 6 274 26 85 23
112 44 129 101 7 26 19 46 25 45 7 -2 11 0 10 5 -4 21 21 45 79 76 40 22 65
30 67 23 2 -7 8 -28 14 -47 6 -19 14 -62 18 -95 7 -59 7 -60 20 -30 8 20 9 37
2 55 -13 35 9 135 39 170 25 30 29 46 12 52 -7 2 -7 12 -1 28 5 14 13 72 17
130 3 57 9 108 11 112 3 4 4 38 4 75 -1 38 -2 119 -3 181 0 61 -4 112 -9 112
-4 0 -5 7 -2 15 4 8 0 23 -7 32 -8 9 -12 19 -11 22 2 3 -13 15 -33 27 -21 11
-68 50 -106 87 -79 77 -139 110 -240 133 -41 9 -90 24 -109 34 -20 10 -58 21
-85 25 -28 4 -70 12 -95 19 -25 7 -65 11 -90 10 -43 -3 -43 -2 -10 5 27 7 30
9 11 10 -42 2 -12 16 47 21 31 3 -18 6 -110 5 -91 0 -164 -3 -161 -7z m-257
-62 c0 -2 -9 -6 -20 -9 -11 -3 -18 -1 -14 4 5 9 34 13 34 5z m56 -21 c-11 -8
-22 -12 -25 -9 -6 6 19 24 34 24 6 -1 1 -7 -9 -15z m-122 -27 l-19 -23 26 23
c14 12 32 22 39 22 25 0 -26 -42 -54 -45 -30 -4 -32 2 -9 27 23 26 40 22 17
-4z m360 -375 c11 -12 129 -32 141 -25 6 4 24 7 40 8 17 1 42 4 58 7 15 2 27
1 27 -3 0 -4 6 -7 13 -7 42 -3 80 -12 90 -22 6 -6 24 -11 40 -11 19 0 26 -4
21 -12 -5 -7 -1 -9 13 -6 29 8 66 -15 70 -43 6 -44 10 -48 47 -42 31 5 37 2
64 -35 16 -22 43 -53 60 -67 18 -15 32 -33 32 -41 0 -8 4 -14 9 -14 5 0 25
-21 44 -47 26 -36 36 -62 41 -105 4 -31 3 -59 -2 -62 -5 -3 -7 -17 -4 -31 3
-20 -1 -31 -19 -43 -54 -39 -101 -48 -253 -51 -82 -1 -172 -6 -199 -12 -69
-13 -97 -11 -97 5 0 17 90 76 116 76 11 0 24 4 30 9 11 11 72 25 61 15 -4 -4
14 -14 40 -21 61 -16 60 -16 60 2 0 8 -4 15 -9 15 -4 0 -8 -4 -8 -10 0 -5 -7
-7 -17 -3 -13 5 -12 8 7 15 13 5 30 6 39 3 8 -3 40 -8 70 -11 31 -3 61 -7 68
-9 7 -2 15 0 18 5 4 6 1 10 -5 10 -7 0 -9 8 -5 20 5 14 2 20 -9 20 -9 0 -16 7
-16 15 0 8 -5 15 -11 15 -6 0 -3 7 5 16 20 20 21 38 1 30 -9 -3 -18 1 -21 9
-4 8 -10 13 -14 10 -11 -7 -33 22 -26 33 3 5 -16 16 -42 25 -41 13 -48 13 -59
0 -6 -8 -15 -14 -20 -14 -18 2 -67 -21 -55 -26 6 -3 9 -9 6 -15 -4 -6 -1 -14
6 -18 7 -4 -9 -8 -36 -8 -57 0 -213 -53 -231 -79 -18 -24 -16 -43 4 -43 9 0
13 -3 10 -7 -4 -3 -2 -12 4 -19 7 -9 5 -17 -9 -31 -10 -10 -26 -34 -35 -54
-23 -50 -35 -57 -101 -65 -53 -6 -58 -5 -63 15 -3 11 -12 21 -20 21 -10 0 -12
6 -8 20 4 13 0 23 -14 32 -14 9 -21 23 -21 44 0 22 -7 36 -24 48 -22 14 -136
33 -236 39 -19 1 -38 6 -41 10 -6 9 -30 10 -74 6 -11 -1 -26 -8 -33 -16 -7 -7
-18 -13 -23 -13 -15 0 -10 18 9 29 9 6 12 11 6 11 -21 0 -63 -66 -57 -89 3
-13 1 -21 -8 -21 -7 0 -10 -3 -6 -6 3 -3 1 -12 -6 -19 -9 -10 -14 -9 -24 4
-11 14 -12 14 -13 1 0 -8 4 -30 9 -47 6 -19 6 -35 1 -38 -5 -3 -7 -12 -3 -20
3 -8 0 -15 -6 -15 -6 0 -11 4 -11 9 0 5 -9 11 -20 14 -17 4 -18 8 -7 36 7 20
14 26 19 18 5 -8 8 -7 8 6 0 9 -6 17 -14 17 -12 0 -14 11 -10 53 6 73 15 116
25 123 5 3 9 13 9 23 0 9 13 32 30 51 16 18 27 37 24 42 -7 11 24 78 45 98 10
8 15 22 14 31 -2 8 8 28 22 45 15 16 31 41 37 57 7 20 17 27 37 27 14 0 35 6
46 13 30 19 121 49 163 52 20 2 48 6 62 9 14 2 31 5 38 5 7 1 11 5 7 10 -3 5
9 12 27 14 18 2 36 5 39 5 3 1 9 -1 13 -5z m-186 -677 c17 -9 32 -20 32 -25 0
-4 -33 -11 -72 -14 -40 -4 -106 -9 -147 -13 l-73 -7 13 24 c18 31 40 48 55 42
7 -2 15 1 19 7 10 16 134 6 173 -14z m752 -5 c0 -5 -27 -9 -60 -9 -33 0 -60 4
-60 9 0 5 27 9 60 9 33 0 60 -4 60 -9z m-1094 -41 c0 -13 -7 -20 -18 -20 -11
0 -18 7 -18 20 0 13 7 20 18 20 11 0 18 -7 18 -20z m1041 -55 c3 -10 16 -15
32 -14 84 6 105 -6 96 -54 -6 -33 -12 -38 -62 -57 -64 -24 -233 -40 -233 -21
0 6 -5 11 -11 11 -5 0 -8 -4 -5 -9 10 -15 -37 -21 -76 -9 -47 14 -50 40 -8 58
17 7 30 16 30 20 0 4 18 2 40 -3 28 -8 45 -8 62 0 13 7 38 15 55 18 27 5 31 9
20 20 -7 7 -29 16 -48 20 l-34 8 50 12 c70 17 85 17 92 0z m-793 -76 c19 0 19
-1 -4 -11 -14 -5 -32 -11 -40 -12 -8 -1 -35 -8 -59 -15 -33 -9 -41 -15 -32
-24 9 -9 16 -8 31 1 11 6 45 12 77 12 55 0 56 0 37 -19 -10 -10 -22 -17 -26
-15 -4 3 -9 0 -13 -6 -8 -13 31 -13 56 0 10 6 19 18 19 26 0 10 6 14 14 11 7
-3 19 0 25 6 6 6 11 8 11 3 0 -4 14 2 30 14 29 20 36 17 31 -14 -1 -5 5 -6 14
-3 26 11 19 -47 -7 -61 -38 -19 -173 -42 -246 -42 -68 0 -142 21 -142 39 0 5
-3 16 -6 24 -4 12 24 28 51 27 3 0 19 16 37 35 30 32 37 35 77 30 24 -3 53 -5
65 -6z m208 -11 c-7 -7 -12 -8 -12 -2 0 14 12 26 19 19 2 -3 -1 -11 -7 -17z"/>
<path d="M5585 7450 c-4 -6 6 -10 22 -10 22 0 25 2 13 10 -19 12 -27 12 -35 0z"/>
<path d="M5710 7450 c-9 -6 -10 -10 -3 -10 6 0 15 5 18 10 8 12 4 12 -15 0z"/>
<path d="M5941 7376 c-23 -37 -21 -71 10 -141 l18 -40 0 61 c1 34 4 82 7 108
8 56 -5 60 -35 12z"/>
<path d="M5913 7122 c-12 -8 -6 -62 7 -62 11 0 20 42 12 56 -4 7 -12 10 -19 6z"/>
<path d="M5871 7104 c0 -11 3 -14 6 -6 3 7 2 16 -1 19 -3 4 -6 -2 -5 -13z"/>
<path d="M5860 7040 c0 -5 5 -10 11 -10 5 0 7 5 4 10 -3 6 -8 10 -11 10 -2 0
-4 -4 -4 -10z"/>
<path d="M5881 7026 c-19 -20 -21 -26 -9 -26 19 0 41 25 36 40 -2 6 -14 0 -27
-14z"/>
<path d="M5233 7034 c-7 -3 -9 -12 -6 -20 3 -9 -2 -14 -15 -14 -28 0 -33 -11
-16 -40 7 -14 13 -19 14 -12 0 7 5 10 11 6 6 -3 15 -1 19 7 7 10 12 10 26 -2
9 -8 20 -13 23 -11 10 5 12 -42 2 -57 -5 -9 -33 -16 -68 -19 -33 -2 -66 -11
-76 -20 -16 -14 -24 -15 -75 -1 -54 14 -72 13 -157 -5 -20 -5 -37 -2 -50 8
-19 14 -19 17 -5 43 9 16 24 28 35 28 11 0 25 3 31 7 13 9 27 51 14 43 -4 -3
-10 2 -14 10 -14 38 -93 7 -169 -66 -18 -16 -44 -37 -59 -45 -16 -8 -28 -19
-28 -24 0 -6 -7 -10 -15 -10 -8 0 -15 -7 -15 -16 0 -9 -5 -12 -12 -8 -7 4 -8
3 -4 -4 12 -21 -3 -33 -26 -21 -16 9 -24 8 -36 -5 -11 -10 -12 -16 -4 -16 7 0
12 -5 12 -12 0 -6 -9 -3 -21 8 -13 11 -19 13 -17 5 2 -7 -4 -15 -13 -16 -9 -2
-25 -6 -36 -9 -22 -7 -38 26 -61 124 -4 19 -12 35 -17 35 -6 0 -10 18 -9 40 0
51 -26 84 -40 49 -4 -10 -2 -13 7 -8 9 5 9 4 0 -7 -7 -7 -13 -33 -13 -57 0
-29 -4 -41 -11 -36 -7 4 -9 -1 -7 -12 2 -11 10 -18 18 -16 11 3 11 0 0 -12 -7
-9 -8 -16 -2 -16 5 0 12 -9 15 -20 3 -11 1 -18 -3 -15 -9 5 -3 -57 7 -85 11
-28 14 -45 17 -95 4 -48 30 -140 63 -215 18 -42 25 -57 58 -134 14 -32 28 -77
32 -100 3 -23 13 -50 21 -61 10 -14 13 -15 9 -3 -12 35 8 25 37 -20 29 -43
101 -122 113 -122 2 0 10 -6 17 -12 7 -7 27 -24 45 -37 23 -18 28 -27 19 -33
-10 -6 -10 -8 0 -8 8 0 28 -16 45 -35 29 -33 57 -46 57 -25 0 5 -8 14 -17 19
-11 6 -13 11 -5 11 7 0 10 5 7 10 -3 6 4 10 17 9 13 0 17 -3 11 -6 -20 -7 -15
-23 7 -23 12 0 17 -5 14 -14 -7 -19 11 -29 37 -21 20 7 20 7 2 21 -15 11 -15
13 -2 8 10 -3 20 0 25 7 4 8 3 10 -4 5 -7 -4 -12 -2 -12 3 0 6 7 11 15 11 8 0
15 6 15 13 0 9 2 9 8 -1 7 -10 15 -10 38 -2 16 7 48 13 71 15 24 2 48 7 54 11
8 4 9 3 5 -4 -12 -20 13 -13 36 10 19 19 22 20 28 4 5 -16 7 -15 25 1 28 26
93 55 105 48 6 -4 22 3 36 14 15 12 21 21 15 21 -8 0 -8 4 1 14 7 8 16 12 20
10 4 -3 12 5 18 16 6 11 22 23 36 26 26 7 49 38 39 54 -3 6 -1 10 5 10 6 0 24
14 41 31 22 22 27 34 19 39 -9 6 -7 11 6 18 10 6 16 14 12 17 -4 4 7 30 25 59
42 66 57 101 57 132 0 14 4 23 8 20 4 -2 13 4 20 14 15 24 -1 35 -21 16 -8 -8
-18 -12 -22 -8 -4 4 -5 0 -3 -8 1 -8 -4 -14 -12 -15 -9 0 -16 -12 -18 -32 -2
-21 -10 -34 -23 -38 -10 -4 -17 -11 -14 -16 4 -5 0 -9 -7 -9 -8 0 -18 -15 -23
-32 -6 -18 -19 -37 -31 -43 -11 -6 -19 -15 -17 -22 5 -13 -31 -36 -41 -26 -3
3 -6 1 -6 -5 0 -7 -7 -12 -16 -12 -14 0 -14 3 -4 15 7 9 10 19 6 23 -4 4 -27
-14 -52 -40 -43 -45 -66 -58 -111 -64 -12 -1 -38 -7 -58 -14 -20 -6 -42 -9
-50 -6 -8 3 -30 -1 -49 -9 -32 -14 -36 -13 -45 3 -8 14 -13 15 -29 5 -11 -6
-23 -9 -27 -5 -4 4 -23 8 -43 8 -83 3 -166 14 -176 24 -5 5 -16 10 -24 10 -14
0 -19 4 -70 64 -26 30 -32 44 -27 66 5 23 1 29 -27 43 -30 15 -31 17 -9 17 23
0 24 1 6 13 -12 9 -15 19 -10 28 7 12 6 12 -9 0 -14 -12 -19 -12 -25 -2 -7 10
-9 9 -14 -2 -4 -10 -14 -13 -32 -9 -25 4 -26 3 -16 -17 7 -11 16 -21 21 -21 6
0 10 -4 10 -10 0 -5 -7 -10 -15 -10 -8 0 -15 7 -15 15 0 8 -4 15 -10 15 -5 0
-10 8 -10 17 0 9 -10 27 -22 40 -13 14 -18 27 -13 31 15 11 15 44 0 38 -7 -2
-17 0 -23 6 -6 6 -12 6 -16 -1 -10 -16 -26 -14 -26 3 0 8 -4 16 -9 18 -15 5
-18 63 -4 61 7 -2 12 2 10 8 -1 6 4 14 12 17 10 3 13 -1 9 -16 -7 -26 32 -72
62 -72 11 0 20 -7 20 -15 0 -8 6 -15 13 -15 9 0 9 -2 -1 -9 -11 -7 -11 -9 2
-14 12 -5 16 0 16 24 l0 31 19 -23 18 -23 5 38 c3 26 0 40 -9 43 -7 3 -10 10
-6 16 4 6 0 8 -10 4 -9 -3 -19 -1 -23 5 -5 7 -2 8 6 3 10 -6 12 -4 7 8 -4 12
-1 17 11 17 14 1 13 3 -4 13 -19 10 -20 14 -8 25 8 7 14 8 14 3 0 -6 7 -8 16
-4 11 4 15 2 12 -7 -2 -7 15 -33 39 -56 40 -41 46 -53 70 -151 6 -27 21 -30
30 -5 4 9 12 23 19 29 9 10 13 9 18 -3 7 -19 -1 -34 -19 -34 -7 0 -15 -7 -19
-15 -4 -13 -2 -13 14 -5 10 5 22 14 25 20 3 6 21 2 43 -10 20 -11 42 -20 49
-20 17 0 33 -33 28 -59 -3 -18 0 -21 14 -16 14 4 21 -2 30 -26 6 -17 8 -36 4
-42 -3 -5 -1 -7 4 -4 6 4 16 0 23 -8 9 -10 9 -15 1 -15 -6 0 -11 -6 -11 -14 0
-8 7 -13 15 -12 18 3 47 41 38 50 -3 3 -2 6 3 6 5 0 15 -9 22 -20 7 -12 17
-18 22 -15 6 3 10 1 10 -5 0 -6 4 -8 10 -5 5 3 17 -3 27 -14 13 -15 20 -18 30
-9 11 9 10 13 -4 25 -16 13 -16 13 7 7 14 -3 22 -3 17 1 -4 5 -17 9 -30 11
-12 1 -25 3 -28 3 -4 1 -9 9 -11 19 -4 15 0 18 18 16 15 -1 24 3 24 12 0 12
19 19 43 15 4 -1 5 19 2 43 -6 42 -5 46 23 60 34 18 82 71 82 92 0 8 5 14 11
14 5 0 8 4 5 9 -3 5 9 28 26 52 17 24 33 38 36 31 7 -22 27 -12 45 24 9 19 17
41 17 48 0 8 7 19 15 26 13 11 15 7 15 -26 l1 -39 19 35 c11 19 19 49 20 65 0
32 33 70 51 59 5 -3 16 0 24 6 12 10 15 8 16 -11 1 -22 2 -21 9 5 10 31 -4 71
-21 61 -5 -4 -14 -3 -21 1 -8 5 -6 10 8 15 17 6 16 7 -8 14 -15 4 -28 14 -30
23 -2 10 -12 17 -23 17 -13 0 -20 6 -19 18 1 13 -6 17 -32 17 -18 0 -37 6 -41
14 -10 18 -70 59 -133 91 -49 25 -64 28 -87 19z m83 -234 c-4 -25 -2 -40 4
-40 5 0 10 5 10 10 0 6 5 10 11 10 5 0 8 -4 5 -8 -2 -4 7 -8 22 -9 53 -1 58
-3 44 -11 -7 -5 -14 -19 -17 -32 -6 -32 -7 -32 -56 -21 -24 6 -66 11 -94 12
-27 1 -42 3 -33 6 14 3 16 9 8 23 -8 15 -6 17 8 14 25 -6 67 19 68 41 2 39 4
45 15 45 8 0 9 -13 5 -40z m54 30 c0 -5 -4 -10 -10 -10 -5 0 -10 5 -10 10 0 6
5 10 10 10 6 0 10 -4 10 -10z m30 -10 c0 -5 -4 -10 -10 -10 -5 0 -10 5 -10 10
0 6 5 10 10 10 6 0 10 -4 10 -10z m-980 -20 c0 -5 -2 -10 -4 -10 -3 0 -8 5
-11 10 -3 6 -1 10 4 10 6 0 11 -4 11 -10z m1205 -20 c3 -5 1 -10 -4 -10 -6 0
-11 5 -11 10 0 6 2 10 4 10 3 0 8 -4 11 -10z m-195 -60 c0 -5 -2 -10 -4 -10
-3 0 -8 5 -11 10 -3 6 -1 10 4 10 6 0 11 -4 11 -10z m-505 -10 l40 -2 -40 -18
c-22 -10 -52 -22 -67 -25 -25 -6 -28 -4 -28 18 0 26 13 36 40 31 8 -1 33 -3
55 -4z m-500 -20 c3 -6 -1 -7 -9 -4 -18 7 -21 14 -7 14 6 0 13 -4 16 -10z m40
-56 c36 -37 40 -44 27 -44 -12 0 -72 58 -72 69 0 18 8 13 45 -25z m853 4 c12
-16 8 -83 -7 -120 -11 -30 -29 -36 -49 -16 -8 8 -15 8 -27 -2 -8 -7 -26 -10
-40 -7 -18 3 -29 -1 -36 -14 -12 -23 -49 -25 -49 -4 0 8 -4 15 -10 15 -5 0
-10 -7 -10 -15 0 -9 -9 -15 -22 -15 -19 0 -20 2 -8 10 11 7 -2 10 -45 11 -33
1 -70 1 -83 0 -17 -1 -26 6 -38 35 -20 48 -13 67 21 54 26 -10 29 -7 26 22 -2
20 42 27 104 16 36 -6 146 10 188 27 14 6 17 1 17 -31 l0 -37 26 24 c21 19 23
25 10 27 -19 4 -21 18 -3 25 20 8 24 8 35 -5z m-528 -208 c0 -5 -4 -10 -10
-10 -5 0 -10 5 -10 10 0 6 5 10 10 10 6 0 10 -4 10 -10z m-130 -96 c0 -16 -16
-19 -25 -4 -8 13 4 32 16 25 5 -4 9 -13 9 -21z m0 -71 c0 -5 -4 -14 -9 -22 -7
-11 -11 -9 -20 8 -10 18 -9 21 9 21 11 0 20 -3 20 -7z m436 -29 c-4 -12 -2
-15 9 -10 8 3 15 0 15 -5 0 -7 -9 -9 -22 -5 -13 3 -29 6 -36 6 -7 0 -10 5 -7
10 4 6 10 8 15 5 5 -3 11 -1 15 5 10 16 18 12 11 -6z"/>
<path d="M4970 6576 c0 -2 6 -9 14 -15 10 -9 15 -8 20 4 4 10 -1 15 -14 15
-11 0 -20 -2 -20 -4z"/>
<path d="M4300 6915 c7 -9 15 -13 17 -11 7 7 -7 26 -19 26 -6 0 -6 -6 2 -15z"/>
<path d="M4435 6870 c3 -5 8 -10 11 -10 2 0 4 5 4 10 0 6 -5 10 -11 10 -5 0
-7 -4 -4 -10z"/>
<path d="M5596 6517 c3 -10 9 -15 12 -12 3 3 0 11 -7 18 -10 9 -11 8 -5 -6z"/>
<path d="M5750 6500 c0 -5 5 -10 11 -10 5 0 7 5 4 10 -3 6 -8 10 -11 10 -2 0
-4 -4 -4 -10z"/>
<path d="M5444 6460 c-4 -16 -10 -30 -15 -30 -5 0 -9 -7 -9 -15 0 -9 6 -12 15
-9 8 4 15 12 15 20 0 8 4 14 9 14 5 0 11 11 13 25 4 17 1 25 -9 25 -7 0 -16
-13 -19 -30z"/>
<path d="M5527 6424 c-25 -58 -29 -94 -10 -94 9 0 13 6 9 15 -3 8 -1 15 5 15
6 0 9 6 6 13 -2 6 1 19 8 27 6 8 9 26 6 39 -6 23 -7 22 -24 -15z"/>
<path d="M4610 6421 c0 -12 6 -21 15 -21 8 0 15 4 15 9 0 5 -7 14 -15 21 -13
10 -15 9 -15 -9z"/>
<path d="M4735 6400 c-3 -5 -1 -10 4 -10 6 0 11 5 11 10 0 6 -2 10 -4 10 -3 0
-8 -4 -11 -10z"/>
<path d="M5405 6379 c-4 -6 -5 -12 -2 -15 2 -3 7 2 10 11 7 17 1 20 -8 4z"/>
<path d="M4828 6342 c-3 -10 0 -26 7 -36 11 -15 13 -14 19 6 3 13 6 29 6 36 0
19 -27 14 -32 -6z"/>
<path d="M5739 6140 c-10 -6 -16 -25 -17 -57 -2 -54 -20 -153 -31 -168 -4 -5
-13 -29 -20 -53 -7 -24 -19 -46 -27 -49 -8 -3 -14 -12 -14 -20 0 -8 -15 -34
-32 -58 -18 -23 -42 -55 -53 -71 -11 -15 -26 -33 -32 -40 -7 -7 -13 -17 -13
-23 0 -5 -10 -18 -22 -28 -13 -10 -23 -25 -23 -33 0 -10 -9 -14 -26 -13 -19 1
-30 -5 -38 -23 -6 -13 -15 -24 -21 -24 -5 0 -10 -9 -10 -19 0 -11 -4 -21 -10
-23 -5 -1 -7 -13 -4 -25 4 -13 11 -20 20 -16 8 3 14 0 14 -6 0 -6 11 -11 24
-11 19 0 23 -5 22 -29 -1 -16 -3 -28 -6 -26 -3 1 -14 -1 -25 -6 -18 -7 -18 -8
5 -9 22 0 23 -2 7 -11 -12 -7 -15 -15 -8 -27 5 -9 5 -26 0 -39 -5 -13 -6 -28
-4 -35 7 -19 -101 -97 -185 -134 -28 -12 -70 1 -70 21 0 7 -10 24 -21 39 -16
21 -20 35 -15 59 4 18 9 50 12 72 3 22 7 46 10 53 10 33 -70 129 -127 152 -19
8 -36 17 -39 20 -3 3 -20 12 -37 19 -18 8 -33 17 -33 22 0 5 -5 9 -11 9 -23 0
-155 95 -200 143 -59 63 -85 115 -99 202 -18 102 -17 101 -41 79 -12 -11 -25
-29 -29 -40 -5 -12 -28 -35 -53 -51 -42 -29 -54 -33 -146 -53 -24 -6 -63 -21
-87 -34 -23 -13 -73 -34 -110 -46 -38 -12 -80 -30 -94 -40 -14 -10 -53 -25
-87 -33 -48 -13 -71 -26 -106 -60 -25 -24 -51 -44 -59 -45 -29 -2 -145 -38
-178 -56 -19 -9 -48 -19 -64 -22 -16 -2 -55 -20 -85 -41 -31 -21 -87 -54 -126
-73 l-70 -35 0 -75 c0 -61 -4 -81 -21 -105 -12 -16 -43 -73 -70 -125 -26 -52
-53 -100 -60 -107 -7 -7 -22 -53 -34 -103 -11 -50 -25 -102 -30 -116 -9 -23
-22 -267 -20 -358 1 -36 -1 -38 -24 -32 -34 8 -39 -10 -51 -196 l-7 -98 26
-10 c14 -5 26 -16 26 -24 0 -58 -86 -289 -105 -283 -5 2 -26 -13 -46 -33 -28
-29 -41 -56 -58 -117 -28 -105 -27 -112 9 -120 38 -7 38 -28 2 -70 l-28 -32
-48 14 c-62 19 -212 17 -228 -3 -14 -16 -5 -23 56 -43 47 -15 206 -118 248
-161 31 -32 33 -42 14 -77 l-13 -23 -22 28 c-12 15 -24 38 -27 51 -9 34 -29
23 -29 -15 0 -25 -4 -32 -18 -32 -15 0 -18 -5 -13 -24 3 -14 2 -28 -4 -31 -20
-13 -9 -47 27 -80 l36 -33 3 -159 c3 -203 36 -462 87 -683 48 -204 74 -342 92
-480 7 -58 16 -116 19 -130 3 -14 8 -43 10 -65 8 -68 51 -185 68 -185 5 0 8
-8 7 -17 -4 -25 16 -60 70 -120 42 -47 63 -73 134 -168 13 -16 28 -42 34 -57
7 -14 20 -29 30 -32 18 -6 121 -142 136 -180 4 -11 12 -45 17 -75 13 -84 37
-193 49 -223 5 -14 12 -57 15 -95 3 -37 11 -103 17 -146 l11 -77 910 0 c863 0
910 1 903 18 -24 63 -23 65 72 92 136 37 129 38 158 -22 14 -28 25 -60 25 -70
0 -16 11 -18 116 -18 132 0 134 1 180 98 19 41 24 63 19 91 l-6 38 58 18 c32
10 61 20 66 22 15 9 6 -7 -23 -41 -41 -46 -63 -101 -51 -125 8 -14 3 -27 -20
-60 l-31 -41 538 2 537 3 1 48 c0 32 4 46 12 45 7 -2 13 0 14 4 2 16 70 168
87 195 9 15 27 36 38 45 11 10 27 24 36 33 14 14 58 144 90 270 6 28 22 70 35
95 12 25 33 79 48 120 42 122 52 149 59 156 4 4 7 13 7 21 0 7 9 33 20 58 11
25 29 65 40 90 11 25 20 48 20 52 0 5 6 19 13 33 16 31 90 244 111 320 22 81
74 308 81 358 6 34 4 42 -9 42 -31 0 -16 17 27 30 23 7 59 21 81 32 27 14 41
16 46 8 10 -15 153 118 146 137 -3 8 -2 11 4 8 5 -3 14 3 19 14 14 26 -4 40
-71 55 -40 9 -56 18 -68 39 -14 25 -13 30 3 58 9 17 17 36 17 43 0 7 17 21 38
32 39 21 39 23 26 102 -5 31 -13 47 -29 54 -12 5 -28 24 -36 41 -11 26 -21 33
-49 35 -44 4 -51 16 -45 72 3 25 7 83 9 129 4 69 8 87 27 107 21 23 22 26 10
114 -7 49 -14 100 -16 113 -6 48 -39 130 -55 134 -28 7 -39 39 -56 150 -28
191 -29 205 -10 215 20 11 15 65 -15 164 -11 34 -21 75 -23 90 -7 56 -19 89
-42 117 -13 15 -26 44 -30 65 -3 20 -14 73 -24 117 -29 127 -32 155 -20 155
14 0 8 60 -21 200 -24 114 -37 150 -55 150 -20 0 -40 45 -64 145 -12 49 -24
94 -27 99 -7 11 -15 71 -14 115 0 19 -11 56 -25 82 -13 27 -24 55 -24 63 0 9
-12 23 -27 33 -32 20 -47 32 -168 144 -89 83 -189 146 -216 137 -8 -3 9 -16
40 -31 70 -36 110 -68 110 -90 1 -10 -8 -38 -19 -63 l-21 -45 -62 35 c-80 45
-178 76 -237 76 -26 0 -49 3 -52 6 -4 3 7 41 23 84 33 91 38 83 -73 119 -36
12 -72 29 -79 37 -17 20 -65 45 -73 37 -3 -4 -6 -1 -6 6 0 14 -162 91 -204 96
-41 5 -59 9 -73 18 -9 6 -11 3 -7 -7 3 -9 2 -16 -4 -16 -25 0 -42 14 -42 35 0
16 -17 38 -51 68 -27 24 -75 75 -105 113 -30 38 -65 72 -77 76 -34 9 -140 9
-158 -2z m-1409 -358 c0 -8 -66 -44 -102 -56 -21 -6 -24 7 -5 22 9 7 86 38
105 42 1 0 2 -4 2 -8z m1995 -71 c37 -6 40 -9 37 -36 -4 -35 -51 -174 -66
-194 -8 -10 -26 -11 -81 -6 -38 4 -114 8 -167 8 -54 -1 -98 0 -98 2 0 21 42
106 83 168 l52 79 100 -7 c55 -3 118 -10 140 -14z m-1650 -69 c54 -57 57 -64
43 -79 -22 -21 -30 -14 -77 72 -39 70 -51 101 -33 80 5 -6 35 -38 67 -73z
m-451 10 c2 -4 -5 -35 -16 -67 -11 -33 -25 -89 -32 -125 l-11 -65 -163 -3
c-127 -2 -164 0 -167 11 -7 17 16 81 51 141 26 43 36 51 84 66 30 10 89 23
130 30 41 7 80 14 85 15 19 6 34 5 39 -3z m1526 -26 c0 -17 -35 -95 -55 -120
-8 -11 -15 -27 -15 -36 0 -9 -13 -32 -30 -50 -16 -18 -30 -40 -30 -47 0 -8 -4
-11 -10 -8 -5 3 -10 15 -10 25 0 10 -4 20 -9 22 -9 3 38 87 100 181 31 45 59
62 59 33z m-1250 -105 c0 -4 18 -31 40 -59 22 -27 40 -53 40 -56 0 -12 -40 -6
-77 11 -21 10 -39 18 -40 18 -7 1 21 95 28 95 5 0 9 -4 9 -9z m-938 -78 c-11
-16 -27 -41 -36 -56 -10 -16 -36 -37 -59 -48 -23 -10 -58 -28 -77 -39 -19 -11
-45 -20 -58 -20 -21 0 -23 4 -20 38 3 32 6 37 29 37 14 1 47 14 75 30 70 42
148 83 157 84 4 1 -1 -11 -11 -26z m1482 -48 c28 -25 31 -47 20 -128 l-7 -47
-28 17 c-23 14 -29 24 -29 52 0 19 -7 42 -16 52 -15 16 -14 20 2 48 10 17 21
31 25 31 3 0 18 -11 33 -25z m2091 -15 c-3 -5 -1 -10 4 -10 6 0 11 -5 11 -11
0 -8 -5 -8 -15 1 -13 11 -12 30 1 30 3 0 2 -4 -1 -10z m-935 -203 c0 -7 -9
-41 -20 -76 -10 -35 -24 -97 -31 -137 -8 -52 -16 -75 -28 -79 -9 -2 -50 -4
-91 -4 -41 1 -117 -4 -169 -10 -52 -6 -96 -9 -100 -6 -7 7 66 296 78 308 5 5
62 11 127 14 66 3 120 6 121 7 1 0 26 -1 57 -2 34 -2 56 -8 56 -15z m599 -4
c25 -14 61 -41 80 -60 l33 -33 -18 -53 c-10 -28 -21 -56 -25 -62 -4 -5 -13
-39 -20 -74 -8 -35 -19 -65 -26 -68 -7 -3 -27 6 -45 20 -103 77 -151 90 -227
66 -25 -9 -35 -8 -41 0 -8 14 9 108 34 196 29 98 25 95 123 95 75 0 92 -3 132
-27z m-3494 -50 c14 -129 20 -134 96 -84 84 55 81 58 117 -92 18 -72 32 -141
32 -152 -1 -38 -35 -64 -117 -89 -18 -6 -22 -2 -28 24 -6 29 -8 30 -25 15 -18
-16 -30 -10 -42 25 -6 14 -29 28 -112 64 -38 17 -38 18 -33 59 5 33 44 163 82
275 10 29 24 8 30 -45z m3989 5 c32 -89 76 -235 82 -275 5 -34 4 -43 -8 -43
-8 0 -55 -13 -104 -30 -49 -16 -96 -30 -105 -30 -16 0 -26 44 -44 190 -9 77
35 172 99 211 47 29 62 24 80 -23z m-3300 -22 c81 -2 152 -8 156 -13 5 -4 10
-73 12 -153 l3 -145 -164 0 -164 0 -3 85 c-2 47 -9 116 -14 153 -11 71 -8 89
13 82 7 -2 79 -6 161 -9z m716 -2 c41 -4 80 -11 86 -16 7 -5 15 -34 19 -65 4
-31 15 -88 26 -127 10 -39 19 -84 19 -100 l0 -29 -102 8 c-57 5 -130 10 -163
11 -33 1 -65 2 -71 3 -7 0 -14 20 -17 44 -21 152 -29 256 -24 271 8 19 18 19
227 0z m396 -67 c15 -57 2 -70 -26 -25 -20 34 -25 59 -13 72 14 14 27 -2 39
-47z m328 27 c18 -7 17 -16 -20 -141 -24 -82 -29 -88 -73 -85 -7 0 -42 -4 -77
-9 -54 -7 -69 -6 -89 7 -31 20 -31 27 -1 67 13 18 36 56 50 85 30 60 41 67 80
52 23 -9 34 -7 60 10 33 21 45 24 70 14z m1118 -482 c18 -18 -17 -60 -58 -71
-21 -6 -41 -8 -46 -5 -10 6 -11 78 0 88 10 11 91 1 104 -12z m-460 -39 l-5
-26 -145 7 c-138 6 -199 18 -162 30 53 17 302 35 311 23 3 -5 4 -20 1 -34z
m-352 6 c0 -6 -4 -7 -10 -4 -5 3 -10 11 -10 16 0 6 5 7 10 4 6 -3 10 -11 10
-16z m-64 -9 c8 0 14 -4 14 -10 0 -14 -50 -24 -62 -12 -14 14 0 35 19 28 8 -3
21 -6 29 -6z m-2431 -50 l70 -27 17 -129 c9 -71 17 -152 17 -181 l1 -52 -92
45 c-51 24 -110 50 -132 56 l-38 12 7 68 c3 38 8 76 9 86 2 9 7 49 11 87 9 85
10 88 38 73 12 -6 53 -24 92 -38z m2112 24 c7 -20 -14 -248 -27 -295 -12 -41
-24 -49 -79 -49 -24 0 -61 -5 -82 -11 -29 -9 -45 -9 -67 0 -28 12 -29 15 -21
44 11 42 17 91 25 207 3 52 7 96 8 97 1 1 35 3 76 4 41 1 84 5 95 10 33 13 65
10 72 -7z m1273 1 c0 -8 -4 -15 -9 -15 -13 0 -22 16 -14 24 11 11 23 6 23 -9z
m-2502 -40 c9 -3 11 -24 7 -77 -5 -67 -34 -248 -41 -256 -1 -2 -71 -5 -154 -8
l-152 -3 8 22 c4 12 9 90 11 173 l4 152 76 1 c42 1 78 3 79 4 5 4 148 -3 162
-8z m652 -38 c49 -12 55 -17 53 -38 0 -13 -5 -80 -9 -149 -10 -183 4 -169
-155 -148 -74 9 -153 17 -176 17 -23 1 -44 5 -47 10 -5 8 30 288 40 320 4 11
26 13 122 8 64 -4 142 -13 172 -20z m1649 -210 c17 -14 20 -21 11 -37 -6 -11
-14 -20 -19 -20 -4 0 -19 -10 -32 -22 -14 -13 -58 -48 -99 -78 -41 -30 -77
-57 -80 -60 -3 -3 -17 -11 -32 -19 -30 -15 -6 -36 -233 207 -39 42 -46 55 -35
62 18 9 106 70 210 143 l75 53 106 -106 c58 -58 115 -113 128 -123z m1025 182
c7 -20 18 -65 25 -100 7 -35 14 -73 17 -84 2 -11 7 -48 11 -82 5 -54 3 -63
-11 -64 -9 -1 -19 -2 -23 -3 -5 -1 -26 -5 -48 -10 -22 -4 -69 -16 -104 -27
-99 -30 -101 -29 -101 39 0 32 -4 83 -10 113 -16 89 -19 187 -6 198 6 5 28 12
49 16 21 4 60 16 85 26 72 27 101 22 116 -22z m-3900 -34 c26 -60 28 -68 16
-107 -7 -24 -17 -71 -23 -105 -7 -39 -16 -63 -24 -63 -19 0 -16 -52 7 -117 11
-31 18 -59 15 -61 -13 -13 -33 13 -54 71 -19 55 -23 91 -27 226 -4 141 -2 161
11 161 9 0 21 14 26 30 6 17 14 30 17 30 4 0 20 -30 36 -65z m3105 -23 c6 -21
13 -52 16 -70 16 -98 16 -92 -9 -92 -21 0 -24 6 -30 53 -15 125 0 195 23 109z
m346 -115 c-1 -34 -8 -82 -14 -107 -6 -25 -14 -76 -17 -115 -3 -38 -8 -72 -10
-74 -2 -3 -27 -4 -55 -4 -49 2 -96 22 -112 50 -4 7 -17 13 -28 13 -28 0 -37
30 -14 46 10 8 14 14 7 14 -7 0 -11 19 -10 53 1 28 -2 61 -5 72 -4 11 -3 25 1
31 7 12 16 15 152 54 41 12 79 25 84 30 18 18 24 -1 21 -63z m-1270 -347 c54
-63 102 -116 107 -118 4 -2 8 -9 8 -16 0 -11 -158 -163 -218 -210 -15 -12 -35
-30 -46 -40 -19 -19 -19 -19 -33 0 -8 10 -11 28 -8 39 3 11 8 99 11 195 6 239
8 259 30 275 25 18 33 11 149 -125z m866 38 c8 -18 12 -41 11 -51 -2 -10 2
-24 8 -32 7 -8 9 -18 6 -23 -3 -5 -10 -65 -15 -133 -12 -147 -20 -191 -33
-183 -5 4 -22 -9 -38 -27 l-28 -34 -13 30 c-6 17 -34 77 -61 133 -26 57 -45
109 -41 115 4 7 32 44 63 82 31 39 65 84 76 100 41 65 47 67 65 23z m-3456
-56 c44 -16 106 -39 137 -53 57 -24 58 -25 57 -64 0 -22 -6 -87 -12 -145 -14
-123 1 -116 -162 -70 -150 43 -157 47 -151 68 3 9 8 35 11 57 3 22 10 64 15
94 6 30 10 74 10 98 0 24 3 43 8 43 4 0 43 -13 87 -28z m520 -52 c2 -8 11 -53
20 -100 8 -47 23 -113 31 -148 9 -35 14 -66 11 -69 -3 -3 -33 12 -67 33 -52
32 -60 41 -54 58 3 12 9 76 11 143 5 117 6 121 24 110 11 -7 21 -19 24 -27z
m1659 -100 c0 -47 -3 -103 -7 -125 -9 -60 -26 -135 -31 -144 -3 -4 -43 -11
-88 -14 -83 -6 -113 -11 -149 -22 -24 -8 -24 -10 6 129 14 64 25 144 25 179
l0 64 78 10 c42 6 97 10 122 9 l45 -1 -1 -85z m-1266 -58 c22 -127 29 -227 15
-235 -6 -3 -177 16 -200 22 -2 1 -3 12 -3 25 0 14 -11 55 -24 93 -26 74 -46
159 -46 198 l0 25 118 0 117 0 23 -128z m567 81 c61 -8 113 -17 117 -19 4 -3
7 -40 7 -82 0 -42 5 -122 11 -176 5 -55 8 -101 5 -104 -5 -5 -152 10 -287 30
l-78 12 -1 50 c0 28 -2 69 -4 91 -2 22 -6 82 -10 134 l-7 94 69 -7 c37 -4 118
-14 178 -23z m2966 -83 c24 -124 49 -280 49 -307 0 -20 -5 -33 -12 -34 -42 -1
-112 -12 -171 -26 -40 -9 -72 -12 -77 -7 -5 5 -18 52 -29 104 -11 52 -27 126
-35 165 -9 38 -16 75 -16 80 0 6 30 18 68 28 37 10 76 22 87 26 11 5 45 8 75
7 54 -1 55 -1 61 -36z m-669 -71 l56 -11 6 -137 c3 -75 7 -152 8 -171 l3 -35
-55 3 c-30 1 -67 7 -82 13 l-27 11 0 169 c-1 192 -9 178 91 158z m-797 -126
c9 -9 34 -39 54 -67 21 -28 45 -57 54 -65 10 -7 17 -18 17 -23 0 -6 9 -22 20
-38 l20 -28 -117 -32 -117 -32 -65 26 c-36 14 -87 31 -113 37 -27 6 -48 14
-48 18 0 7 35 39 96 86 21 17 65 53 98 82 67 57 77 61 101 36z m-2864 -208
c21 -8 32 -60 19 -86 -12 -21 -30 -23 -78 -10 -23 7 -30 7 -26 -1 5 -8 -5 -9
-32 -5 -21 4 -64 7 -94 7 -30 0 -60 4 -66 8 -6 4 -15 26 -19 50 -6 39 -5 44
14 49 13 3 21 13 21 28 l0 22 123 -28 c67 -15 129 -30 138 -34z m-446 -118
c74 -72 81 -77 93 -77 7 0 12 -4 12 -10 0 -5 6 -10 14 -10 18 0 39 -27 31 -40
-7 -12 -20 -4 -90 55 -72 62 -145 135 -145 147 0 13 21 -3 85 -65z m971 -165
c-8 -147 -11 -152 -65 -106 l-31 26 0 123 c0 164 2 167 57 113 l44 -43 -5
-113z m2797 152 c3 -4 0 -18 -7 -33 -22 -42 -37 -131 -37 -224 -1 -82 -2 -86
-26 -92 -43 -10 -215 -45 -226 -45 -6 0 -8 32 -3 95 9 133 21 185 52 233 23
36 33 42 63 43 28 1 130 17 172 28 3 0 8 -2 12 -5z m-2559 -48 c48 -8 90 -17
93 -19 2 -3 8 -29 13 -59 5 -29 15 -75 23 -103 13 -48 9 -176 -6 -192 -7 -6
-127 22 -171 41 -29 12 -29 12 -27 93 3 94 -9 145 -44 197 -14 20 -25 41 -25
46 0 14 40 12 144 -4z m1989 -58 c-22 -95 -30 -155 -32 -238 -1 -41 -4 -77 -7
-80 -3 -2 -85 -5 -182 -5 l-177 0 3 85 c3 109 19 276 27 290 4 6 76 10 195 10
l188 0 -15 -62z m-753 10 c0 -89 -21 -312 -30 -323 -6 -7 -30 -11 -55 -10 -25
1 -48 -2 -51 -6 -3 -5 -37 -9 -76 -9 l-71 0 7 63 c3 34 9 107 12 162 3 55 7
114 9 130 l5 30 125 3 125 3 0 -43z m-675 -13 c11 -1 50 -6 88 -10 37 -4 70
-11 73 -16 3 -5 6 -91 7 -191 l2 -183 -29 0 c-37 -1 -133 9 -284 29 -12 2 -25
5 -27 8 -3 2 -6 89 -7 192 l-3 189 80 -8 c44 -4 89 -8 100 -10z m-981 -82
c-12 -57 -15 -60 -29 -33 -8 14 -14 29 -15 33 0 6 29 22 48 26 1 1 0 -11 -4
-26z m4103 -58 c9 -59 19 -156 26 -285 2 -22 -3 -26 -43 -30 -25 -3 -62 -2
-82 2 -21 5 -60 9 -88 10 -29 1 -54 6 -57 10 -2 5 -6 57 -7 116 -2 59 -7 133
-11 165 l-8 57 44 1 c24 0 69 7 99 14 30 7 68 12 85 11 29 -1 30 -3 42 -71z
m-656 35 c9 0 31 -108 25 -119 -4 -5 -1 -20 5 -34 8 -18 8 -40 -3 -88 -12 -56
-17 -64 -39 -67 -13 -2 -33 5 -44 15 -11 10 -42 36 -69 57 -58 47 -92 117 -95
195 l-1 53 107 -5 c60 -4 111 -6 114 -7z m-4054 -26 c-3 -3 -12 -4 -19 -1 -8
3 -5 6 6 6 11 1 17 -2 13 -5z m578 -114 c-7 -48 -8 -50 -21 -31 -12 17 -12 24
3 55 22 46 27 39 18 -24z m-271 -77 c42 -49 76 -94 76 -100 0 -7 5 -13 10 -13
6 0 10 -7 10 -15 0 -22 -15 -18 -33 8 -9 12 -52 60 -95 107 -73 77 -84 99 -50
100 4 0 41 -39 82 -87z m-429 58 c3 -6 -4 -15 -15 -21 -19 -10 -20 -10 -8 9
15 24 15 24 23 12z m4027 -70 c16 -13 28 -28 28 -33 0 -5 -16 -24 -35 -44 -28
-28 -35 -42 -35 -74 0 -39 -12 -52 -26 -29 -18 30 9 225 30 212 6 -4 23 -18
38 -32z m-4057 15 l-30 -13 25 -8 c14 -4 28 -12 31 -17 3 -5 17 2 30 16 23 23
25 23 26 5 1 -10 -3 -19 -8 -19 -6 0 -7 -9 -4 -21 7 -20 12 -45 14 -60 1 -4
11 -10 24 -13 l22 -7 -22 -15 c-20 -14 -21 -18 -8 -31 13 -13 13 -16 0 -29 -8
-8 -12 -21 -9 -29 4 -9 0 -15 -10 -15 -9 0 -16 5 -16 12 0 6 -9 1 -20 -12 -11
-13 -23 -20 -28 -15 -4 4 -1 10 6 12 6 3 12 10 12 16 0 6 7 18 16 28 9 10 13
23 8 30 -5 9 -10 7 -20 -6 -8 -11 -20 -15 -30 -11 -13 5 -14 9 -4 21 14 17 5
49 -11 39 -8 -5 -8 -1 0 14 6 11 24 26 41 34 16 7 30 17 30 21 0 5 -4 5 -10 2
-6 -3 -7 1 -4 9 6 17 -11 22 -20 7 -3 -5 -20 -8 -38 -6 -44 3 -54 34 -19 57
14 10 33 18 41 17 8 0 2 -6 -15 -13z m29 -88 c-3 -4 -9 -8 -15 -8 -5 0 -9 4
-9 8 0 5 7 9 15 9 8 0 12 -4 9 -9z m798 -58 c47 -55 58 -87 46 -140 -4 -19
-10 -66 -13 -105 -7 -96 -15 -145 -25 -145 -4 0 -25 19 -45 41 -41 46 -40 29
-19 232 4 32 3 57 -3 57 -5 0 -10 -14 -11 -32 -5 -57 -12 -43 -12 23 0 60 16
119 32 119 4 0 26 -22 50 -50z m-187 -180 c16 -32 25 -66 25 -97 0 -53 6 -66
33 -76 16 -6 18 -14 12 -46 -9 -56 10 -145 50 -229 l34 -73 -27 -10 c-39 -15
-91 -68 -113 -114 -23 -50 -25 -161 -4 -230 8 -27 12 -51 10 -53 -2 -3 -25 1
-50 8 -32 9 -50 21 -64 44 -18 29 -19 43 -11 251 5 121 17 283 28 360 11 77
23 176 27 220 10 114 14 117 50 45z m3029 -97 c5 -82 9 -161 10 -177 1 -28 -2
-30 -104 -63 -142 -45 -161 -46 -172 -8 -28 101 -18 296 19 326 12 11 194 64
229 68 7 1 14 -50 18 -146z m-3604 121 c0 -8 -5 -12 -10 -9 -6 4 -8 11 -5 16
9 14 15 11 15 -7z m1080 -20 c36 -13 73 -24 82 -24 34 0 39 -34 32 -198 -3
-86 -10 -161 -14 -166 -5 -4 -55 7 -112 26 l-103 35 4 88 c2 48 5 95 6 104 2
9 4 51 4 95 1 70 3 77 19 71 9 -4 46 -18 82 -31z m-1029 -4 c12 0 17 -5 12
-16 -3 -8 -11 -13 -19 -10 -7 3 -14 1 -16 -3 -2 -5 -13 -12 -25 -15 -17 -5
-23 -3 -23 7 0 18 24 39 33 30 4 -3 7 2 8 13 0 10 3 13 6 7 2 -7 13 -13 24
-13z m2983 -97 c-5 -32 -9 -119 -9 -193 l0 -135 -65 -7 c-36 -4 -113 -9 -172
-11 -99 -3 -108 -1 -114 16 -6 19 1 200 12 309 7 68 0 65 178 67 72 1 132 4
135 6 2 3 13 5 24 5 18 0 19 -4 11 -57z m1133 35 c21 -12 45 -27 53 -34 20
-16 160 -37 196 -29 29 6 28 6 -4 -11 -31 -16 -38 -16 -145 6 -92 19 -116 28
-134 49 -40 46 -26 54 34 19z m-1863 -176 c-1 -125 -5 -187 -12 -194 -9 -9
-26 -9 -69 0 -45 9 -59 9 -64 -1 -5 -8 -25 -11 -58 -9 l-51 4 5 176 c3 98 5
184 5 192 0 13 20 15 123 15 l122 0 -1 -183z m-2294 168 c0 -5 -7 -10 -16 -10
-8 0 -12 5 -9 10 3 6 10 10 16 10 5 0 9 -4 9 -10z m4668 -18 c2 -8 -11 -12
-39 -12 -43 0 -45 13 -4 23 27 6 38 3 43 -11z m-3143 -6 c22 -4 58 -8 80 -11
22 -3 70 -10 107 -16 l67 -11 3 -174 c2 -96 2 -179 0 -184 -2 -6 -20 -10 -40
-10 -44 0 -289 37 -303 46 -6 3 -8 45 -4 102 3 54 6 133 6 177 1 89 4 98 27
91 10 -2 35 -7 57 -10z m-1480 -49 c-19 -23 -34 -33 -46 -30 -27 7 -24 16 12
32 16 7 28 16 25 19 -3 3 -1 11 6 19 7 9 15 10 21 4 6 -6 -1 -22 -18 -44z
m-36 34 c9 -6 10 -11 2 -15 -6 -4 -11 -2 -11 4 0 7 -9 9 -22 5 -18 -5 -20 -4
-8 4 18 13 21 13 39 2z m5066 -21 c3 -5 -1 -10 -9 -10 -9 0 -16 5 -16 10 0 6
4 10 9 10 6 0 13 -4 16 -10z m-380 -229 c-16 -14 -55 -23 -55 -12 0 8 16 14
55 20 6 0 6 -2 0 -8z m-728 -173 c-3 -8 -6 -5 -6 6 -1 11 2 17 5 13 3 -3 4
-12 1 -19z m644 -1 c-10 -9 -11 -8 -5 6 3 10 9 15 12 12 3 -3 0 -11 -7 -18z
m49 -24 c0 -3 -6 -3 -14 0 -8 3 -17 1 -19 -6 -2 -7 -8 -8 -13 -4 -11 11 15 27
33 20 7 -3 13 -7 13 -10z m-250 -53 c12 -8 11 -10 -7 -10 -13 0 -23 5 -23 10
0 13 11 13 30 0z m50 -20 c0 -5 -2 -10 -4 -10 -3 0 -8 5 -11 10 -3 6 -1 10 4
10 6 0 11 -4 11 -10z m-3595 -170 c-12 -19 -44 -10 -64 18 -31 44 -36 79 -15
103 18 20 19 19 51 -46 19 -36 31 -70 28 -75z m185 94 c115 -36 114 -35 105
-114 -5 -36 -9 -103 -9 -149 l-1 -83 -83 5 c-45 2 -89 10 -97 17 -10 8 -15 30
-15 63 0 31 -8 68 -21 94 -16 34 -20 53 -14 81 4 20 9 51 12 67 7 47 12 57 26
51 6 -2 50 -17 97 -32z m3507 -12 c-5 -7 -12 -10 -15 -7 -11 11 -11 40 1 47
16 10 28 -23 14 -40z m-962 -22 c-4 -34 -7 -113 -7 -176 l-1 -115 -51 -23
c-93 -41 -188 -68 -199 -57 -7 7 -13 76 -15 166 -5 179 1 199 65 211 21 3 74
17 118 29 44 13 84 23 88 24 5 1 6 -26 2 -59z m745 -11 c0 -4 -4 -11 -10 -14
-5 -3 -10 -1 -10 5 0 6 -4 9 -8 6 -5 -3 -9 1 -9 8 0 8 8 11 19 8 10 -2 18 -8
18 -13z m-2051 -65 c9 -9 14 -249 6 -311 l-7 -55 -59 5 c-33 2 -62 1 -64 -4
-3 -4 -32 -7 -63 -7 l-58 1 -1 191 0 191 120 -2 c66 -2 123 -6 126 -9z m733
-171 c1 -100 0 -184 -3 -187 -7 -8 -144 -18 -249 -20 l-95 -1 -2 120 c-1 66 0
148 3 182 6 73 -5 68 189 78 66 4 122 9 124 11 3 3 11 3 18 2 11 -2 14 -43 15
-185z m1523 159 c-3 -3 -11 0 -18 7 -9 10 -8 11 6 5 10 -3 15 -9 12 -12z
m-2955 -17 c41 -8 91 -17 111 -20 35 -5 36 -7 43 -58 3 -28 6 -81 6 -117 0
-36 7 -87 15 -114 8 -26 12 -52 9 -57 -7 -11 -107 0 -158 18 -21 7 -48 13 -60
13 -11 0 -37 5 -57 10 -53 15 -68 60 -76 223 l-6 130 49 -7 c27 -4 83 -13 124
-21z m2890 -6 c0 -6 -4 -7 -10 -4 -5 3 -10 11 -10 16 0 6 5 7 10 4 6 -3 10
-11 10 -16z m-4250 -73 c0 -7 3 -8 8 -1 13 18 47 10 72 -17 13 -16 30 -28 37
-28 7 0 13 -7 13 -15 0 -8 6 -15 14 -15 8 0 18 -5 22 -12 5 -7 2 -9 -9 -5 -11
4 -14 2 -10 -9 6 -17 19 -18 28 -4 9 14 35 -7 35 -27 0 -8 5 -11 10 -8 6 3 10
1 10 -5 0 -6 4 -9 8 -6 17 11 62 15 56 5 -3 -5 0 -17 7 -25 6 -8 9 -17 5 -21
-3 -4 -13 2 -21 13 -14 18 -14 18 -9 -2 3 -12 -3 -35 -14 -53 -16 -26 -21 -29
-26 -15 -3 9 -1 23 5 30 10 12 9 13 -5 8 -11 -4 -16 0 -17 12 -1 15 -2 16 -6
3 -2 -9 -15 -22 -27 -29 -18 -9 -24 -21 -24 -46 0 -19 -8 -46 -17 -60 -16 -24
-17 -25 -30 -7 -19 24 -18 31 2 29 10 0 18 7 20 19 1 11 0 14 -3 8 -8 -18 -21
-16 -21 2 0 8 4 15 8 15 4 0 10 11 13 25 4 14 10 24 14 24 18 -3 32 2 32 12 0
5 -4 7 -10 4 -5 -3 -10 1 -10 9 0 10 -6 13 -15 10 -11 -5 -15 1 -15 21 0 23
-2 26 -15 15 -12 -10 -15 -9 -15 6 0 15 -2 16 -9 5 -8 -12 -12 -10 -21 11 -10
21 -9 30 4 50 15 22 14 24 -4 25 -18 2 -25 -13 -21 -40 0 -4 2 -23 4 -42 1
-19 5 -35 10 -35 13 0 7 -29 -12 -60 -15 -25 -20 -28 -25 -15 -3 9 -3 29 0 43
5 26 5 26 -10 8 -20 -25 -20 -8 -1 18 19 26 19 37 -1 29 -14 -5 -14 -2 1 28
10 20 12 29 4 22 -20 -20 -26 -16 -39 22 -6 19 -15 35 -20 35 -4 0 -8 15 -9
33 0 17 -2 43 -5 56 -5 22 -3 21 24 -9 17 -19 30 -38 30 -44z m4194 48 c9 -23
1 -28 -21 -15 -11 6 -13 11 -5 11 7 0 10 5 7 10 -3 6 -2 10 3 10 6 0 13 -7 16
-16z m-4288 -99 c-3 -8 -1 -15 3 -15 5 0 7 -9 4 -20 -3 -12 0 -20 6 -20 7 0
10 4 6 9 -3 5 0 13 6 17 8 4 9 3 5 -5 -4 -6 0 -14 8 -17 9 -3 16 -13 16 -21 0
-8 -5 -11 -11 -7 -8 4 -9 0 -4 -15 13 -41 -24 -11 -50 41 -30 60 -31 68 -4 68
15 0 19 -5 15 -15z m61 -37 c-3 -8 -6 -5 -6 6 -1 11 2 17 5 13 3 -3 4 -12 1
-19z m-10 -110 c-3 -8 -6 -5 -6 6 -1 11 2 17 5 13 3 -3 4 -12 1 -19z m392 -30
c-5 -10 -11 -18 -13 -18 -2 0 -6 8 -8 18 -4 12 1 18 13 18 14 0 15 -4 8 -18z
m3781 -20 c28 -31 25 -42 -5 -16 -14 12 -25 25 -25 30 0 13 8 9 30 -14z
m-3850 -3 c-7 -9 -15 -13 -19 -10 -3 3 1 10 9 15 21 14 24 12 10 -5z m-90
-124 c0 -6 -4 -11 -8 -11 -15 0 -30 22 -25 36 4 11 7 11 19 -1 8 -7 14 -18 14
-24z m1123 -142 c36 -13 50 -29 24 -29 -7 0 -34 -13 -60 -30 -26 -16 -53 -30
-60 -30 -11 0 -122 132 -162 193 -17 26 -11 24 101 -31 65 -33 136 -66 157
-73z m2738 109 c11 2 18 -6 21 -23 6 -30 5 -31 -32 -3 -29 21 -43 48 -17 31 6
-4 19 -6 28 -5z m-761 -128 c9 -6 17 -5 23 3 5 7 6 3 2 -10 -5 -17 -2 -23 9
-23 9 0 16 -5 16 -10 0 -6 -12 -8 -28 -5 -22 4 -34 -2 -59 -29 -36 -38 -85
-61 -109 -52 -13 5 -16 16 -11 52 2 25 9 50 15 56 22 22 117 34 142 18z
m-1264 -60 c37 0 46 -4 53 -22 5 -13 27 -48 50 -78 55 -73 116 -193 108 -212
-3 -10 -27 -20 -59 -25 -29 -6 -77 -20 -105 -31 -62 -26 -49 -42 -126 153 -31
77 -63 157 -72 179 l-16 38 23 -5 c13 -2 34 -1 48 3 14 4 31 6 38 4 8 -2 34
-4 58 -4z m790 -36 c-14 -37 -16 -90 -3 -114 11 -21 20 -25 59 -25 26 -1 50
-4 54 -8 11 -11 -42 -26 -184 -55 l-133 -27 -45 25 c-55 29 -93 76 -105 130
-17 75 -10 79 159 83 81 1 160 4 176 5 22 2 27 -1 22 -14z m-1924 -132 l45
-58 -25 -32 c-23 -30 -24 -35 -11 -60 7 -15 15 -30 17 -34 2 -5 -17 -8 -42 -8
l-46 0 0 58 c0 54 11 192 15 192 1 0 22 -26 47 -58z m2878 -212 c0 -5 -2 -10
-4 -10 -3 0 -8 5 -11 10 -3 6 -1 10 4 10 6 0 11 -4 11 -10z"/>
<path d="M2895 2540 c-3 -6 1 -7 9 -4 18 7 21 14 7 14 -6 0 -13 -4 -16 -10z"/>
<path d="M3330 1284 c0 -14 4 -23 9 -20 5 3 7 15 4 26 -7 28 -13 25 -13 -6z"/>
<path d="M5118 6123 c7 -3 16 -2 19 1 4 3 -2 6 -13 5 -11 0 -14 -3 -6 -6z"/>
<path d="M5015 5770 c-3 -5 1 -11 7 -13 7 -3 3 -6 -9 -6 -24 -1 -40 -17 -20
-19 89 -14 97 -14 97 1 0 8 6 17 13 20 6 2 10 7 7 9 -9 10 -90 16 -95 8z m62
-25 c0 -17 -13 -20 -21 -6 -4 5 0 12 6 14 7 3 13 6 14 6 0 1 1 -6 1 -14z"/>
<path d="M6820 5610 c66 -23 82 -25 53 -5 -11 8 -40 17 -64 20 l-44 5 55 -20z"/>
</g>
</svg>
