<?xml version="1.0" standalone="no"?>
<!DOCTYPE svg PUBLIC "-//W3C//DTD SVG 20010904//EN"
 "http://www.w3.org/TR/2001/REC-SVG-20010904/DTD/svg10.dtd">
<svg version="1.0" xmlns="http://www.w3.org/2000/svg"
 width="200.000000pt" height="200.000000pt" viewBox="0 0 200.000000 200.000000"
 preserveAspectRatio="xMidYMid meet">
<metadata>
Created by potrace 1.11, written by Peter Selinger 2001-2013
</metadata>
<g transform="translate(0.000000,200.000000) scale(0.100000,-0.100000)"
fill="#000000" stroke="none">
<path d="M995 1786 c-11 -8 -26 -16 -34 -16 -8 0 -28 -11 -45 -24 -17 -12 -44
-30 -61 -39 -32 -17 -133 -110 -150 -138 -34 -56 -45 -80 -45 -106 0 -48 12
-128 20 -136 4 -5 6 -39 3 -75 -4 -63 -3 -66 11 -42 l15 25 1 -26 c0 -14 -5
-30 -11 -36 -9 -9 -8 -20 4 -44 8 -18 13 -38 10 -45 -2 -6 0 -15 6 -19 7 -4
11 13 11 52 0 61 26 130 48 125 7 -1 12 4 12 12 0 21 49 34 108 28 45 -4 52
-2 46 12 -3 9 -14 16 -24 16 -10 0 -23 6 -29 14 -7 8 -21 12 -31 9 -11 -3 -20
-1 -20 4 0 21 27 33 73 33 60 0 59 18 -2 41 -23 8 -46 21 -50 28 -21 34 32
121 86 142 35 13 160 4 208 -16 53 -22 113 -81 121 -119 3 -17 10 -35 14 -41
4 -5 10 -31 13 -56 6 -42 4 -47 -15 -53 -12 -3 -27 -1 -34 5 -7 5 -23 9 -36 7
-12 -1 -40 2 -62 6 -25 6 -57 4 -93 -4 -43 -11 -59 -11 -74 -2 -27 17 -46 15
-23 -3 15 -12 16 -16 5 -24 -7 -5 -14 -19 -15 -32 -1 -18 -9 -25 -31 -30 -29
-6 -29 -7 7 -8 33 -1 40 3 54 32 25 47 54 63 54 28 0 -25 38 -71 58 -70 13 0
12 2 -4 9 -14 6 -23 21 -27 46 -7 41 3 54 38 53 11 0 14 -3 8 -6 -7 -2 -13
-11 -13 -19 0 -16 6 -17 78 -14 40 1 52 -1 52 -13 0 -20 27 -29 50 -17 31 16
33 13 27 -52 -11 -126 -35 -210 -75 -267 -21 -30 -45 -58 -53 -61 -123 -58
-198 -67 -309 -36 -8 3 -18 5 -22 5 -4 1 -16 11 -28 23 -23 25 -24 23 -9 -21
7 -20 16 -30 25 -27 7 3 16 1 19 -5 4 -5 10 -7 15 -4 4 2 24 -6 44 -20 70 -47
91 -55 142 -48 59 7 93 23 145 70 39 35 46 33 40 -12 -1 -5 6 -1 14 9 8 11 15
27 15 35 0 9 13 61 29 116 16 55 32 132 36 170 9 90 13 105 32 105 12 0 14 7
10 29 -4 17 2 49 13 80 24 61 25 90 6 152 -23 74 -41 101 -103 152 -79 66
-219 157 -252 163 -15 3 -34 -1 -46 -10z m58 -23 c-7 -2 -19 -2 -25 0 -7 3 -2
5 12 5 14 0 19 -2 13 -5z m-178 -442 c-6 -5 -21 -11 -35 -13 -14 -1 -31 -10
-38 -18 -11 -13 -12 -12 -10 5 2 15 13 22 43 26 22 3 42 7 45 8 2 0 0 -3 -5
-8z m375 -37 c0 -14 -3 -14 -15 -4 -8 7 -15 14 -15 16 0 2 7 4 15 4 8 0 15 -7
15 -16z m120 -28 c0 -3 -4 -8 -10 -11 -5 -3 -10 -1 -10 4 0 6 5 11 10 11 6 0
10 -2 10 -4z"/>
<path d="M1120 1395 c-40 -15 -31 -20 50 -30 90 -11 94 -11 98 6 6 31 -85 46
-148 24z"/>
<path d="M806 1219 c3 -5 24 -9 46 -9 51 0 47 5 -10 13 -24 3 -40 1 -36 -4z"/>
<path d="M1158 1193 c12 -2 32 -2 45 0 12 2 2 4 -23 4 -25 0 -35 -2 -22 -4z"/>
<path d="M1116 1162 c-4 -7 -3 -12 3 -12 5 0 21 -19 35 -42 21 -35 26 -39 26
-21 0 29 -54 91 -64 75z"/>
<path d="M910 1139 c0 -4 8 -15 17 -24 14 -14 28 -16 80 -11 70 7 93 14 93 27
0 13 -47 11 -70 -3 -14 -9 -24 -9 -42 -1 -30 15 -78 22 -78 12z"/>
<path d="M898 1049 c-10 -5 -18 -15 -18 -20 0 -17 51 -79 65 -79 7 0 24 -9 37
-20 34 -26 79 -13 124 37 40 46 42 66 9 81 -32 15 -193 15 -217 1z m197 -44
c0 -23 -5 -30 -20 -30 -11 -1 -19 -6 -18 -12 6 -27 -87 -27 -103 -1 -5 7 0 9
14 6 35 -10 25 8 -10 18 -23 7 -34 17 -36 32 -3 21 -1 22 85 19 l88 -2 0 -30z"/>
<path d="M1283 809 c-3 -40 -44 -130 -209 -465 -90 -183 -164 -334 -164 -338
0 -3 211 -6 468 -6 l469 0 7 158 c9 212 1 237 -101 314 -65 49 -322 213 -350
223 -16 5 -67 63 -106 118 -12 17 -13 17 -14 -4z"/>
<path d="M821 716 c-8 -9 -20 -16 -28 -16 -7 0 -30 -8 -51 -19 -20 -10 -68
-25 -107 -34 -162 -36 -190 -66 -269 -292 -18 -50 -32 -113 -56 -255 -7 -41
-18 -81 -23 -87 -7 -10 27 -13 167 -13 116 0 176 4 176 10 0 6 15 52 34 103
18 51 52 142 73 202 22 61 43 118 47 127 6 12 0 21 -24 33 -30 15 -31 15 -21
-2 7 -14 5 -25 -9 -43 -21 -28 -25 -24 -39 52 -8 45 -7 49 44 123 29 43 56 78
60 79 11 2 33 -63 34 -101 1 -17 14 -60 31 -95 16 -34 30 -72 31 -83 l0 -20 9
20 c16 36 10 89 -16 150 -14 33 -31 86 -38 118 -10 51 -14 57 -25 43z"/>
<path d="M715 530 c3 -5 8 -10 11 -10 2 0 4 5 4 10 0 6 -5 10 -11 10 -5 0 -7
-4 -4 -10z"/>
<path d="M1007 533 c-7 -11 10 -40 18 -31 4 4 3 14 -3 24 -5 9 -12 12 -15 7z"/>
<path d="M1026 455 c-3 -9 0 -15 9 -15 8 0 15 7 15 15 0 8 -4 15 -9 15 -5 0
-11 -7 -15 -15z"/>
</g>
</svg>
