<?xml version="1.0" encoding="UTF-8" standalone="no"?><!DOCTYPE svg PUBLIC "-//W3C//DTD SVG 1.1//EN" "http://www.w3.org/Graphics/SVG/1.1/DTD/svg11.dtd"><svg width="100%" height="100%" viewBox="0 0 328 337" version="1.1" xmlns="http://www.w3.org/2000/svg" xmlns:xlink="http://www.w3.org/1999/xlink" xml:space="preserve" xmlns:serif="http://www.serif.com/" style="fill-rule:evenodd;clip-rule:evenodd;stroke-linejoin:round;stroke-miterlimit:1.41421;"><path d="M151.606,0.001c-9.866,-0.123 -17.982,8.227 -17.982,18.406c0,38.848 0,214.454 0,214.454c0,0 -70.579,-71.997 -87.169,-88.92c-7.122,-7.265 -17.563,-7.422 -24.488,-0.496c-3.284,3.283 -10.07,10.07 -16.3,16.299c-7.119,7.12 -7.711,18.556 -0.748,25.519c22.987,22.988 112.081,112.081 145.687,145.688c7.024,7.024 19.019,6.835 25.947,-0.092c23.155,-23.155 113.089,-113.089 145.71,-145.71c7.019,-7.019 6.755,-19.053 -0.184,-25.993c-3.348,-3.347 -10.108,-10.108 -16.21,-16.21c-7.491,-7.49 -18.982,-6.742 -25.845,0.258c-16.635,16.969 -86.306,90.215 -86.306,90.215c0,0 0,-176.395 0,-215.211c0,-9.906 -8.182,-17.783 -18.198,-17.908c-4.866,-0.061 -14.891,-0.186 -23.914,-0.299Z" style="fill:#fff;"/></svg>