<?xml version="1.0" encoding="UTF-8" standalone="no"?><!DOCTYPE svg PUBLIC "-//W3C//DTD SVG 1.1//EN" "http://www.w3.org/Graphics/SVG/1.1/DTD/svg11.dtd"><svg width="100%" height="100%" viewBox="0 0 9 9" version="1.1" xmlns="http://www.w3.org/2000/svg" xmlns:xlink="http://www.w3.org/1999/xlink" xml:space="preserve" xmlns:serif="http://www.serif.com/" style="fill-rule:evenodd;clip-rule:evenodd;stroke-linejoin:round;stroke-miterlimit:1.5;"><g id="Layer6"><circle cx="4.18" cy="4.18" r="3.855" style="fill:none;stroke:#fff;stroke-width:0.65px;"/><path d="M0.536,4.919c0,0 0.57,-1.221 0.884,-0.949c0.055,0.047 0.143,0.268 0.233,0.402c0.052,0.077 0.533,0.536 0.612,0.614c0.132,0.131 0.316,0.28 0.405,0.429c0.103,0.173 0.29,0.05 0.383,0.241c0.081,0.166 0.011,0.718 0.153,0.777c0.172,0.07 0.276,0.31 0.428,0.511c0.075,0.098 0.236,0.064 0.276,0.233c0.077,0.325 -1.303,0.408 -1.303,0.408c2.42,0.86 4.717,-0.11 5.352,-2.645c0,0 -0.887,1.289 -1.341,1.415c-0.23,0.064 -0.225,-0.308 -0.517,-0.383c-0.29,-0.075 -0.79,-0.06 -0.863,-0.277c-0.116,-0.349 0.492,-1.037 0.126,-1.213c-0.431,-0.206 -2.264,0.109 -2.709,-0.025c-0.25,-0.075 -0.139,-0.589 0.037,-0.781c0.153,-0.169 1.039,0.137 0.995,-0.299c-0.104,-1.023 0.455,-1.017 1.319,-1.005c0.379,0.005 0.049,-0.866 0.365,-0.911c0.38,-0.054 1.162,0.077 1.03,-0.192c-0.665,-1.346 -6.389,-1.734 -5.865,3.65Z" style="fill:#fff;"/></g></svg>